<svg width="164" height="153" viewBox="0 0 164 153" fill="none" xmlns="http://www.w3.org/2000/svg">
<path d="M163 1H1V152H163V1Z" fill="white"/>
<g opacity="0.1">
<path opacity="0.1" d="M163 148.425V151.988H159.177" stroke="#20263C" stroke-miterlimit="10"/>
<path opacity="0.1" d="M151.824 151.988H8.4928" stroke="#20263C" stroke-miterlimit="10" stroke-dasharray="5.77 5.77"/>
<path opacity="0.1" d="M4.82286 151.988H1V148.425" stroke="#20263C" stroke-miterlimit="10"/>
<path opacity="0.1" d="M1 141.571V7.98383" stroke="#20263C" stroke-miterlimit="10" stroke-dasharray="5.77 5.77"/>
<path opacity="0.1" d="M1 4.56328V1H4.82286" stroke="#20263C" stroke-miterlimit="10"/>
<path opacity="0.1" d="M12.1755 1H155.494" stroke="#20263C" stroke-miterlimit="10" stroke-dasharray="5.77 5.77"/>
<path opacity="0.1" d="M159.177 1H163V4.56328" stroke="#20263C" stroke-miterlimit="10"/>
<path opacity="0.1" d="M163 11.4048V145.004" stroke="#20263C" stroke-miterlimit="10" stroke-dasharray="5.77 5.77"/>
</g>
<path d="M61.2737 51.741L66.3708 54.1166C67.3091 54.4985 68.33 54.6706 69.3523 54.6191C70.3745 54.5675 71.3696 54.2938 72.258 53.8196L77.075 50.8977C77.9038 50.337 78.5784 49.6012 79.0435 48.7506C79.5086 47.9001 79.7511 46.9589 79.7508 46.0041L79.4451 40.6473C79.3335 39.7003 78.9849 38.7909 78.4271 37.9925C77.8692 37.1941 77.118 36.5289 76.2338 36.0507L71.1367 33.6158C70.2003 33.2293 69.1794 33.0538 68.1566 33.1033C67.1339 33.1528 66.1379 33.426 65.2495 33.9009L60.4328 36.8228C59.6054 37.3849 58.9318 38.121 58.4669 38.9713C58.002 39.8215 57.7586 40.7621 57.7567 41.7163L58.0625 47.0731C58.1615 48.0331 58.5044 48.9572 59.0628 49.7689C59.6212 50.5807 60.3791 51.2568 61.2737 51.741Z" fill="#414042"/>
<path d="M92.0221 58.6777L86.925 56.2428C85.989 55.8609 84.9701 55.689 83.9499 55.7405C82.9297 55.7921 81.9368 56.0658 81.0505 56.5397L76.1827 59.4616C75.3584 60.0264 74.687 60.7631 74.2224 61.6128C73.7577 62.4624 73.5126 63.4016 73.5067 64.3552L73.8127 69.712C73.9242 70.6591 74.2728 71.5686 74.8306 72.367C75.3885 73.1654 76.1396 73.8306 77.0237 74.3086L82.1209 76.6842C83.0552 77.0705 84.074 77.2462 85.0948 77.1967C86.1155 77.1472 87.1092 76.8739 87.9953 76.3991L92.8249 73.4772C93.6496 72.9099 94.3209 72.1712 94.7854 71.3195C95.25 70.468 95.495 69.5271 95.5009 68.5718L95.1951 63.2268C95.0782 62.292 94.731 61.3948 94.1806 60.6057C93.6301 59.8165 92.8914 59.1567 92.0221 58.6777Z" fill="#414042"/>
<path d="M107.747 81.2691L102.65 78.8936C101.713 78.507 100.692 78.3314 99.6697 78.3809C98.647 78.4305 97.651 78.7036 96.7626 79.1786L91.9459 82.1005C91.1199 82.6639 90.4475 83.4003 89.9827 84.2503C89.5179 85.1002 89.2737 86.0401 89.2698 86.9941L89.5757 92.3509C89.6977 93.2827 90.0486 94.1758 90.6011 94.9605C91.1536 95.7454 91.8929 96.4009 92.7615 96.8763L97.8586 99.2518C98.7967 99.6337 99.8177 99.8058 100.84 99.7542C101.862 99.7027 102.857 99.4289 103.746 98.9548L108.575 96.033C109.4 95.4695 110.071 94.7328 110.534 93.8826C110.997 93.0324 111.238 92.0927 111.239 91.1394L110.971 85.8776C110.861 84.927 110.512 84.0141 109.951 83.2132C109.391 82.4124 108.636 81.7462 107.747 81.2691Z" fill="#414042"/>
<path d="M70.1937 67.9658L69.9516 63.7967C69.9574 62.8431 70.2025 61.9039 70.6672 61.0543C71.1318 60.2046 71.8031 59.468 72.6276 58.9032L82.019 53.2138C82.9052 52.7399 83.8982 52.4661 84.9184 52.4146C85.9386 52.363 86.9575 52.5351 87.8935 52.9169L91.8948 54.8173C92.8312 55.2038 93.8521 55.3794 94.8748 55.3299C95.8977 55.2804 96.8935 55.0071 97.782 54.5322L102.599 51.5984C103.425 51.0357 104.098 50.2995 104.563 49.4493C105.028 48.5992 105.272 47.6591 105.275 46.7049L104.969 41.36C104.859 40.4108 104.511 39.499 103.954 38.6984C103.396 37.8977 102.643 37.2308 101.758 36.7514L96.6606 34.3165C95.7225 33.9347 94.7015 33.7626 93.6791 33.8141C92.6569 33.8657 91.6618 34.1394 90.7734 34.6135L85.8546 37.4879C85.0295 38.0513 84.3585 38.788 83.8958 39.6382C83.4331 40.4884 83.1918 41.4281 83.1914 42.3814L83.4208 46.5505C83.4204 47.5039 83.1789 48.4436 82.7162 49.2938C82.2535 50.144 81.5825 50.8807 80.7575 51.444L71.366 57.1334C70.4776 57.6083 69.4817 57.8816 68.459 57.9311C67.4361 57.9806 66.4153 57.805 65.4788 57.4185L61.4903 55.5299C60.5538 55.1434 59.533 54.9679 58.5101 55.0174C57.4874 55.0669 56.4915 55.3401 55.6031 55.815L50.7863 58.7369C49.9589 59.2991 49.2854 60.0351 48.8205 60.8854C48.3555 61.7357 48.1122 62.6762 48.1103 63.6305L48.4161 68.9873C48.5247 69.9368 48.8722 70.849 49.4301 71.6497C49.9881 72.4505 50.7408 73.1172 51.6273 73.5958L56.7245 75.9713C57.6626 76.3533 58.6835 76.5254 59.7058 76.4738C60.728 76.4223 61.7232 76.1485 62.6117 75.6743L67.4285 72.7525C68.2562 72.2093 68.9368 71.494 69.4169 70.6632C69.8968 69.8325 70.1627 68.909 70.1937 67.9658Z" fill="#414042"/>
<path d="M120.643 63.9514C120.529 63.0032 120.18 62.0929 119.622 61.2929C119.065 60.4928 118.315 59.825 117.432 59.3429L112.335 56.9674C111.396 56.5864 110.375 56.4147 109.353 56.4663C108.331 56.5178 107.336 56.7911 106.447 57.2643L101.63 60.1862C100.805 60.7497 100.132 61.486 99.6674 62.336C99.2026 63.1859 98.9584 64.1258 98.9545 65.0798L99.1966 69.2607C99.1927 70.2146 98.9485 71.1545 98.4837 72.0045C98.019 72.8544 97.3465 73.5908 96.5205 74.1543L87.1418 79.8318C86.2533 80.3058 85.2582 80.5796 84.236 80.6312C83.2138 80.6827 82.1928 80.5106 81.2546 80.1287L77.2533 78.2283C76.3173 77.8465 75.2984 77.6743 74.2782 77.7259C73.258 77.7776 72.2651 78.0512 71.3788 78.5253L66.5111 81.4353C65.6867 82 65.0154 82.7366 64.5507 83.5863C64.0861 84.4359 63.8411 85.3751 63.8352 86.3288L64.1409 91.6855C64.2525 92.6326 64.6012 93.5421 65.1589 94.3405C65.7168 95.1389 66.468 95.8041 67.3522 96.2823L72.4494 98.7172C73.3836 99.1036 74.4024 99.2791 75.4231 99.2296C76.4439 99.1801 77.4376 98.9068 78.3238 98.432L83.1533 95.5101C83.977 94.9447 84.6479 94.208 85.1123 93.3585C85.5769 92.5089 85.8224 91.5701 85.8294 90.6167L85.5873 86.4356C85.5901 85.4815 85.8338 84.5414 86.2987 83.6913C86.7636 82.8411 87.4365 82.1049 88.2631 81.542L97.6419 75.8528C98.5303 75.3779 99.5263 75.1046 100.549 75.0551C101.572 75.0056 102.593 75.1811 103.529 75.5676L107.518 77.4563C108.454 77.8428 109.475 78.0183 110.498 77.9688C111.521 77.9193 112.516 77.6461 113.405 77.1712L118.234 74.2493C119.059 73.6851 119.729 72.9484 120.192 72.0984C120.654 71.2483 120.896 70.3088 120.898 69.3557L120.643 63.9514Z" fill="#414042"/>
</svg>
